<svg width="148" height="148" viewBox="0 0 148 148" fill="none" xmlns="http://www.w3.org/2000/svg">
<g clip-path="url(#clip0)">
<path d="M148 35.4587V112.541C148 121.915 140.415 129.5 131.041 129.5H16.9587C15.4163 129.5 13.9371 129.315 12.5799 128.883C5.30362 126.972 0 120.373 0 112.541V35.4587C0 26.0845 7.5845 18.5 16.9587 18.5H131.041C140.415 18.5 148 26.0845 148 35.4587Z" fill="#ECEFF1"/>
<path d="M43.1663 49.3337C43.1663 56.1447 37.6447 61.6663 30.8337 61.6663C24.0215 61.6663 18.5 56.1447 18.5 49.3337C18.5 42.5215 24.0215 37 30.8337 37C37.6447 37 43.1663 42.5215 43.1663 49.3337Z" fill="#FFC107"/>
<path d="M148 98.2971V112.541C148 121.915 140.416 129.5 131.042 129.5H16.9589C15.4165 129.5 13.9373 129.315 12.5801 128.883L87.9373 53.5262C92.1299 49.3337 99.0369 49.3337 103.231 53.5262L148 98.2971Z" fill="#388E3C"/>
<path d="M105.203 129.5H16.9587C15.4163 129.5 13.9371 129.315 12.5799 128.883C5.30362 126.972 0 120.373 0 112.541V110.63L35.5197 75.11C39.7133 70.9163 46.6204 70.9163 50.8129 75.11L105.203 129.5Z" fill="#4CAF50"/>
</g>
<defs>
<clipPath id="clip0">
<rect width="148" height="148" fill="white"/>
</clipPath>
</defs>
</svg>
