<svg width="21" height="20" viewBox="0 0 21 20" fill="none" xmlns="http://www.w3.org/2000/svg">
<path fill-rule="evenodd" clip-rule="evenodd" d="M5.26531 2.1766H15.1749C16.757 2.1766 18.0438 3.4635 18.0438 5.04522V14.9548C18.0438 16.5369 16.7566 17.8238 15.1749 17.8238H5.26531C3.6836 17.8238 2.39675 16.5365 2.39675 14.9548V5.04522C2.39675 3.4635 3.6836 2.1766 5.26531 2.1766ZM5.06936 10C5.06936 12.8404 7.38006 15.151 10.2201 15.151C13.0601 15.151 15.3712 12.84 15.3712 10C15.3712 7.15996 13.0605 4.84915 10.2201 4.84915C7.38006 4.84915 5.06936 7.15996 5.06936 10ZM14.3177 4.69541C14.3177 5.36735 14.8645 5.91412 15.5368 5.91412C16.2087 5.91412 16.7555 5.36735 16.7555 4.69541C16.7555 4.02348 16.2087 3.4767 15.5368 3.4767C14.8645 3.4767 14.3177 4.02348 14.3177 4.69541ZM10.2202 7.02594C8.58073 7.02594 7.24572 8.36022 7.24572 9.99964C7.24572 11.64 8.58073 12.9746 10.2202 12.9746C11.8605 12.9746 13.1944 11.64 13.1944 9.99964C13.1944 8.36059 11.8601 7.02594 10.2202 7.02594ZM15.175 20C17.9572 20 20.2201 17.7371 20.2201 14.9548V5.04522C20.2201 2.26324 17.9572 0 15.175 0H5.26539C2.48351 0 0.220215 2.26324 0.220215 5.04522V14.9548C0.220215 17.7371 2.48351 20 5.26539 20H15.175Z" fill="white"/>
</svg>
