<svg width="22" height="20" viewBox="0 0 22 20" fill="none" xmlns="http://www.w3.org/2000/svg">
<path d="M21.1498 12.261V20H16.6629V12.7797C16.6629 10.9667 16.0151 9.72863 14.3905 9.72863C13.1508 9.72863 12.4143 10.5622 12.089 11.3692C11.9709 11.6577 11.9405 12.0582 11.9405 12.4628V19.9997H7.45327C7.45327 19.9997 7.5135 7.77079 7.45327 6.50494H11.9408V8.41727C11.9318 8.43232 11.9191 8.44705 11.911 8.46144H11.9408V8.41727C12.5371 7.49975 13.6005 6.18806 15.9846 6.18806C18.9366 6.18806 21.1498 8.11678 21.1498 12.261ZM2.75928 0C1.2244 0 0.220215 1.00753 0.220215 2.33127C0.220215 3.6269 1.19529 4.66354 2.70039 4.66354H2.7295C4.2945 4.66354 5.26756 3.6269 5.26756 2.33127C5.23778 1.00753 4.2945 0 2.75928 0ZM0.486903 20H4.97243V6.50494H0.486903V20Z" fill="white"/>
</svg>
