<svg width="7" height="9" viewBox="0 0 7 9" fill="none" xmlns="http://www.w3.org/2000/svg">
<path d="M3.5 8.89797L1.1135 6.51147C0.641504 6.03947 0.32007 5.4381 0.189848 4.78341C0.0596264 4.12873 0.126465 3.45013 0.381912 2.83343C0.637359 2.21674 1.06994 1.68964 1.62496 1.31879C2.17997 0.947939 2.83249 0.75 3.5 0.75C4.16751 0.75 4.82003 0.947939 5.37505 1.31879C5.93006 1.68964 6.36264 2.21674 6.61809 2.83343C6.87354 3.45013 6.94038 4.12873 6.81015 4.78341C6.67993 5.4381 6.3585 6.03947 5.8865 6.51147L3.5 8.89797ZM5.35625 5.98122C5.72334 5.6141 5.97332 5.14637 6.07458 4.63717C6.17585 4.12798 6.12385 3.60019 5.92516 3.12055C5.72647 2.64091 5.39002 2.23096 4.95835 1.94253C4.52667 1.65411 4.01917 1.50016 3.5 1.50016C2.98084 1.50016 2.47333 1.65411 2.04166 1.94253C1.60998 2.23096 1.27353 2.64091 1.07484 3.12055C0.876155 3.60019 0.824156 4.12798 0.925421 4.63717C1.02669 5.14637 1.27667 5.6141 1.64375 5.98122L3.5 7.83747L5.35625 5.98122ZM3.5 4.87497C3.30109 4.87497 3.11032 4.79595 2.96967 4.6553C2.82902 4.51465 2.75 4.32388 2.75 4.12497C2.75 3.92606 2.82902 3.73529 2.96967 3.59464C3.11032 3.45399 3.30109 3.37497 3.5 3.37497C3.69891 3.37497 3.88968 3.45399 4.03033 3.59464C4.17098 3.73529 4.25 3.92606 4.25 4.12497C4.25 4.32388 4.17098 4.51465 4.03033 4.6553C3.88968 4.79595 3.69891 4.87497 3.5 4.87497Z" fill="#030047"/>
</svg>
