<svg width="25" height="20" viewBox="0 0 25 20" fill="none" xmlns="http://www.w3.org/2000/svg">
<path d="M24.7599 2.36769C23.8547 2.76909 22.881 3.04057 21.8598 3.16182C22.9024 2.53714 23.7026 1.54871 24.0802 0.36901C23.1046 0.947755 22.0236 1.3676 20.874 1.5939C19.953 0.61301 18.6407 0 17.1876 0C14.3997 0 12.1386 2.26113 12.1386 5.04905C12.1386 5.44479 12.1834 5.82999 12.27 6.19976C8.07384 5.98927 4.35323 3.97929 1.86279 0.923656C1.42826 1.66921 1.17899 2.53714 1.17899 3.4623C1.17899 5.21359 2.07102 6.75967 3.42506 7.66488C2.5978 7.6389 1.81873 7.41184 1.13832 7.03267C1.13795 7.05413 1.13795 7.07559 1.13795 7.09668C1.13795 9.54307 2.87908 11.5835 5.1884 12.0471C4.76517 12.163 4.31822 12.2244 3.85846 12.2244C3.53237 12.2244 3.21646 12.1932 2.90845 12.1344C3.55082 14.1399 5.41508 15.5997 7.625 15.6408C5.89668 16.9952 3.71989 17.8021 1.3537 17.8021C0.94704 17.8021 0.544141 17.7784 0.149902 17.7313C2.38317 19.1645 5.03779 20 7.88896 20C17.176 20 22.2548 12.3065 22.2548 5.63381C22.2548 5.41504 22.2499 5.19703 22.2401 4.98089C23.2274 4.26923 24.0833 3.38021 24.7599 2.36769Z" fill="white"/>
</svg>
