<svg width="10" height="10" viewBox="0 0 10 10" fill="none" xmlns="http://www.w3.org/2000/svg">
<path d="M8.08341 6.18985C7.74756 6.1176 7.48187 6.27353 7.24662 6.40971C7.00569 6.55004 6.54757 6.92168 6.28498 6.82656C4.94054 6.27301 3.67607 5.09626 3.12869 3.74643C3.03222 3.47823 3.40212 3.0172 3.54142 2.77343C3.67658 2.53746 3.82929 2.26926 3.75964 1.93089C3.6967 1.62683 2.88261 0.590938 2.59474 0.307666C2.40488 0.12055 2.21039 0.0176369 2.01074 0.00100447C1.2601 -0.031221 0.421758 0.970366 0.274726 1.20998C-0.0936275 1.72091 -0.0915639 2.40076 0.280917 3.22511C1.17859 5.43931 4.57373 8.78088 6.79624 9.71229C7.20638 9.90409 7.58144 10.0002 7.91832 10.0002C8.24799 10.0002 8.54153 9.90825 8.79381 9.72581C8.98418 9.61614 10.0268 8.73618 9.99947 7.96536C9.98296 7.76889 9.8803 7.57242 9.69561 7.38219C9.41444 7.09164 8.38522 6.25326 8.08341 6.18985Z" fill="white"/>
</svg>
