<svg width="10" height="10" viewBox="0 0 10 10" fill="none" xmlns="http://www.w3.org/2000/svg">
<path fill-rule="evenodd" clip-rule="evenodd" d="M0.75 4.15888C0.75 1.85895 2.67194 0 4.99672 0C7.32806 0 9.25 1.85895 9.25 4.15888C9.25 5.31785 8.8285 6.39381 8.13475 7.30579C7.3694 8.31176 6.42608 9.18823 5.36427 9.87621C5.12126 10.0352 4.90194 10.0472 4.63522 9.87621C3.56737 9.18823 2.62404 8.31176 1.86525 7.30579C1.17099 6.39381 0.75 5.31785 0.75 4.15888ZM3.59704 4.2884C3.59704 5.05888 4.22575 5.66486 4.99664 5.66486C5.76804 5.66486 6.40281 5.05888 6.40281 4.2884C6.40281 3.52392 5.76804 2.88844 4.99664 2.88844C4.22575 2.88844 3.59704 3.52392 3.59704 4.2884Z" fill="white"/>
</svg>
