<svg width="100" height="100" viewBox="0 0 100 100" fill="none" xmlns="http://www.w3.org/2000/svg">
<path d="M58.8399 61.92C58.3299 61.51 57.8399 61.11 57.2799 60.71C57.0255 60.8113 56.7519 60.8548 56.4786 60.8375C56.2054 60.8202 55.9394 60.7425 55.6999 60.61C50.3099 56.71 44.8099 52.81 39.0999 49.4C38.9675 49.3344 38.8514 49.2403 38.7597 49.1244C38.6681 49.0086 38.6032 48.8739 38.5699 48.73C35.6799 52.78 32.6599 56.73 29.6199 60.73C23.5599 68.6 17.7199 76.6 11.9199 84.66C8.35986 89.55 4.72986 95.12 0.359863 99.68C1.03986 99.68 1.71986 99.59 2.40986 99.52C21.3099 89.13 38.1299 75.36 56.7399 64.46L59.7999 62.7L58.8399 61.92Z" fill="#FFECB4"/>
<path d="M50.4499 51.44C46.1904 48.214 41.536 45.5457 36.5999 43.5C32.7399 48.68 28.9299 53.8933 25.1699 59.14C21.6099 64.07 17.9999 69.65 13.6099 74.21C14.2899 74.21 14.9699 74.12 15.6599 74.05C27.7999 67.38 39.0699 59.31 50.5199 51.51L50.4499 51.44ZM62.7299 64.64C61.5599 63.16 60.3799 61.64 59.1799 60.17C57.8899 58.85 56.5699 57.56 55.2699 56.25C51.9099 60.77 48.5999 65.33 45.2699 69.9C41.7499 74.84 38.1099 80.41 33.7499 85C34.4299 85 35.1099 84.92 35.7499 84.84C45.7099 79.37 54.9999 73 64.3699 66.58C63.8099 66 63.2599 65.3 62.7299 64.64Z" fill="#FFECB4"/>
<path d="M52.9999 50.22C50.7599 48.32 48.5399 46.44 46.3999 44.49C40.8099 51.79 35.3999 59.2 29.9999 66.65C26.4399 71.59 22.8099 77.16 18.4399 81.72C19.1199 81.72 19.8099 81.63 20.4899 81.56C34.2199 74 46.8199 64.74 59.7999 56C57.5199 54.12 55.2699 52.16 52.9999 50.22Z" fill="#F8FAFB"/>
<path d="M63.7699 17.2C51.4499 24.83 18.9999 34.5199 8.91992 48.4199C25.3399 43.8399 23.4399 51 20.3699 56.2999C33.0029 41.3606 47.6377 28.2367 63.8599 17.2999L63.7699 17.2ZM50.6199 85.3999C55.5199 73.8799 58.6199 66.16 48.6199 59.97C74.6899 43.32 78.3299 42.7 78.3299 42.7C72.9099 69.57 65.8399 78.3399 50.6199 85.3999Z" fill="#8080EF"/>
<path d="M20.3698 56.3C19.3852 57.9652 18.2753 59.5532 17.0498 61.05C17.0498 61.05 25.3398 59 40.3798 59C48.9898 59 61.1698 66.93 70.8698 53.51C81.1798 39.29 99.4098 10.36 99.9998 0C94.8243 0.319931 89.7714 1.70915 85.1598 4.08C60.6798 17.77 38.2398 34.84 20.3698 56.3Z" fill="#B1B1FA"/>
<path d="M90.1199 12.2C93.0203 8.80107 95.0762 4.76467 96.1199 0.420044C92.3154 1.12927 88.6272 2.36092 85.1599 4.08004C77.8266 8.18671 70.6899 12.61 63.7499 17.35C72.3199 22.62 83.4399 19.67 90.1199 12.2ZM68.9999 26.7C68.4258 25.8278 67.6038 25.1473 66.6396 24.7463C65.6754 24.3453 64.6132 24.2421 63.5899 24.45C63.4199 24.45 63.2599 24.55 63.0999 24.6C62.9399 24.65 62.5699 24.6 62.2899 24.67C61.4442 24.8463 60.6516 25.2186 59.9759 25.757C59.3003 26.2955 58.7605 26.985 58.3999 27.77C58.0421 28.4989 57.8433 29.2955 57.8167 30.1069C57.79 30.9184 57.9361 31.7263 58.2453 32.4771C58.5545 33.2278 59.0197 33.9043 59.6101 34.4617C60.2005 35.019 60.9026 35.4445 61.6699 35.71C62.9915 36.1825 64.4317 36.2074 65.7689 35.781C67.106 35.3545 68.2659 34.5004 69.0699 33.35C69.7153 32.3582 70.053 31.1977 70.0405 30.0145C70.0281 28.8312 69.666 27.6781 68.9999 26.7ZM56.8499 38.09C56.2787 37.2148 55.457 36.5319 54.492 36.1305C53.5269 35.7292 52.4633 35.628 51.4399 35.84C51.2706 35.8808 51.1037 35.9309 50.9399 35.99C49.932 35.9994 48.949 36.3049 48.1134 36.8685C47.2777 37.4321 46.6262 38.229 46.2399 39.16C45.8822 39.8882 45.6835 40.684 45.6569 41.4948C45.6303 42.3057 45.7765 43.1128 46.0858 43.8628C46.395 44.6128 46.8603 45.2884 47.4506 45.8448C48.041 46.4012 48.7429 46.8257 49.5099 47.09C50.831 47.5677 52.2729 47.5952 53.6112 47.1684C54.9496 46.7416 56.1093 45.8843 56.9099 44.73C57.5546 43.7403 57.8929 42.5822 57.8822 41.401C57.8715 40.2198 57.5124 39.068 56.8499 38.09Z" fill="#C5E9FF"/>
<path d="M71.9998 18.71C70.1287 18.772 68.2681 18.406 66.5598 17.64C66.442 17.58 66.3528 17.4759 66.3116 17.3504C66.2704 17.2248 66.2805 17.0881 66.3398 16.97C66.4017 16.8515 66.5077 16.7621 66.6348 16.7209C66.762 16.6798 66.9002 16.6902 67.0198 16.75C69.3298 17.93 74.0198 18.27 79.2698 16.36C82.5551 15.1357 85.5483 13.2383 88.0574 10.7895C90.5665 8.34071 92.536 5.39455 93.8398 2.13997C93.8636 2.07704 93.9 2.01958 93.9465 1.97102C93.9931 1.92246 94.049 1.8838 94.1109 1.85735C94.1728 1.83091 94.2394 1.81724 94.3066 1.81714C94.3739 1.81704 94.4406 1.83053 94.5025 1.85679C94.5645 1.88306 94.6205 1.92156 94.6672 1.96998C94.7139 2.01841 94.7504 2.07577 94.7744 2.13863C94.7984 2.20148 94.8095 2.26854 94.807 2.33579C94.8045 2.40303 94.7885 2.46908 94.7598 2.52997C93.3992 5.90765 91.3504 8.96517 88.7439 11.508C86.1374 14.0508 83.0301 16.0233 79.6198 17.3C77.181 18.2089 74.6024 18.686 71.9998 18.71Z" fill="#F8FAFB"/>
<path d="M75.8802 12.66C75.7937 12.6615 75.7084 12.6401 75.6328 12.5979C75.5573 12.5557 75.4943 12.4944 75.4502 12.42C75.3832 12.3054 75.3635 12.1693 75.3952 12.0405C75.4269 11.9116 75.5076 11.8003 75.6202 11.73L79.0802 9.66996C84.9002 6.17996 88.7502 3.86996 90.9302 3.82996C91.062 3.82985 91.1888 3.88083 91.2839 3.97219C91.379 4.06355 91.435 4.18819 91.4402 4.31996C91.4415 4.38562 91.4299 4.4509 91.406 4.51207C91.382 4.57325 91.3463 4.62911 91.3008 4.67647C91.2553 4.72383 91.2009 4.76176 91.1408 4.7881C91.0806 4.81443 91.0158 4.82866 90.9502 4.82996C89.0402 4.82996 85.0802 7.23996 79.5902 10.53L76.1302 12.59C76.0555 12.6373 75.9686 12.6617 75.8802 12.66ZM59.8002 31.19H59.6902C59.5605 31.1567 59.4486 31.0748 59.3778 30.9612C59.307 30.8475 59.2828 30.711 59.3102 30.58C59.6695 29.3489 60.3839 28.2511 61.3639 27.424C62.344 26.597 63.5462 26.0772 64.8202 25.93C65.8202 25.93 67.7202 26.28 68.5702 29.16C68.6073 29.2926 68.5902 29.4345 68.5227 29.5545C68.4552 29.6745 68.3428 29.7628 68.2102 29.8C68.0776 29.8371 67.9356 29.82 67.8156 29.7525C67.6956 29.685 67.6073 29.5726 67.5702 29.44C67.0802 27.76 66.1302 26.91 64.8102 26.93C63.7595 27.0754 62.7723 27.5178 61.9645 28.2052C61.1567 28.8925 60.562 29.7962 60.2502 30.81C60.2237 30.9121 60.1662 31.0034 60.0856 31.0715C60.005 31.1395 59.9053 31.1809 59.8002 31.19ZM47.4702 43.2C47.3494 43.1991 47.2329 43.1554 47.1413 43.0766C47.0498 42.9979 46.9891 42.8892 46.9702 42.77C46.9113 41.8812 47.0963 40.9933 47.5051 40.202C47.914 39.4107 48.5312 38.7461 49.2902 38.28C50.0436 37.6608 50.9476 37.2522 51.9101 37.0959C52.8727 36.9396 53.8595 37.041 54.7702 37.39C55.7202 37.86 56.8802 38.96 56.9702 41.56C56.9728 41.6264 56.9622 41.6928 56.9389 41.7551C56.9156 41.8175 56.8801 41.8745 56.8345 41.923C56.7888 41.9714 56.734 42.0102 56.6731 42.0372C56.6123 42.0641 56.5467 42.0787 56.4802 42.08C56.4142 42.0827 56.3483 42.072 56.2865 42.0486C56.2247 42.0251 56.1683 41.9895 56.1207 41.9437C56.073 41.8979 56.0351 41.843 56.0093 41.7822C55.9834 41.7214 55.9701 41.656 55.9702 41.59C55.9102 39.93 55.3402 38.78 54.3302 38.28C53.5795 38.0223 52.7754 37.9614 51.9945 38.1033C51.2137 38.2451 50.4822 38.5848 49.8702 39.09C49.2734 39.4646 48.7862 39.9902 48.4579 40.6135C48.1295 41.2369 47.9716 41.936 48.0002 42.64C48.0172 42.7712 47.9815 42.9039 47.9009 43.0088C47.8203 43.1138 47.7014 43.1825 47.5702 43.2H47.4702Z" fill="#F8FAFB"/>
<path d="M56.4699 80.16C56.3702 80.1657 56.2712 80.1408 56.1861 80.0887C56.101 80.0366 56.0338 79.9597 55.9936 79.8683C55.9533 79.777 55.9419 79.6755 55.9609 79.5775C55.9799 79.4796 56.0284 79.3897 56.0999 79.32C58.3699 76.93 59.3999 66.77 58.0999 64.32C58.0393 64.2017 58.0274 64.0644 58.0667 63.9373C58.1059 63.8103 58.1931 63.7036 58.3099 63.64C58.3682 63.6087 58.4322 63.5893 58.4981 63.583C58.564 63.5766 58.6305 63.5834 58.6938 63.6029C58.757 63.6224 58.8158 63.6543 58.8666 63.6968C58.9174 63.7392 58.9593 63.7913 58.9899 63.85C60.4999 66.69 59.4199 77.34 56.8499 80.04C56.7978 80.0845 56.7374 80.1181 56.6721 80.1387C56.6068 80.1593 56.538 80.1665 56.4699 80.16ZM60.7199 76.66C60.6113 76.6623 60.5053 76.627 60.4199 76.56C60.3138 76.4805 60.2436 76.362 60.2249 76.2307C60.2061 76.0995 60.2403 75.9661 60.3199 75.86C63.3999 71.75 62.9999 64.16 62.9999 64.08C62.9946 64.0144 63.0023 63.9483 63.0226 63.8856C63.0429 63.823 63.0753 63.7649 63.118 63.7147C63.1607 63.6646 63.2129 63.6234 63.2716 63.5934C63.3302 63.5634 63.3942 63.5453 63.4599 63.54C63.5255 63.5348 63.5916 63.5425 63.6543 63.5628C63.7169 63.583 63.775 63.6155 63.8251 63.6582C63.8753 63.7009 63.9165 63.7531 63.9465 63.8117C63.9765 63.8704 63.9946 63.9344 63.9999 64C63.9999 64.33 64.4599 72 61.1599 76.44C61.1132 76.513 61.0477 76.5719 60.9702 76.6107C60.8927 76.6494 60.8062 76.6665 60.7199 76.66ZM65.5899 72.36C65.499 72.357 65.41 72.3331 65.3299 72.29C65.274 72.2553 65.2255 72.2099 65.1872 72.1564C65.1489 72.1029 65.1215 72.0423 65.1066 71.9782C65.0918 71.9141 65.0897 71.8477 65.1005 71.7828C65.1114 71.7179 65.135 71.6558 65.1699 71.6C67.3099 68.08 66.9999 61.47 66.9999 61.4C66.9958 61.3348 67.0048 61.2695 67.0264 61.2079C67.048 61.1462 67.0816 61.0895 67.1254 61.0411C67.1692 60.9926 67.2222 60.9534 67.2814 60.9258C67.3405 60.8981 67.4046 60.8826 67.4699 60.88C67.5356 60.876 67.6014 60.8849 67.6636 60.9063C67.7258 60.9278 67.7832 60.9613 67.8325 61.005C67.8817 61.0486 67.9218 61.1016 67.9506 61.1608C67.9793 61.22 67.996 61.2843 67.9999 61.35C67.9999 61.63 68.3499 68.35 65.9999 72.12C65.9561 72.1903 65.896 72.2489 65.8245 72.2907C65.7531 72.3325 65.6726 72.3563 65.5899 72.36ZM69.3399 67.45C69.2562 67.4492 69.174 67.4287 69.0999 67.39C68.9849 67.3247 68.8997 67.2173 68.8624 67.0904C68.8251 66.9636 68.8385 66.8272 68.8999 66.71C70.3899 63.96 70.1899 59.48 70.1899 59.44C70.1899 59.3074 70.2425 59.1802 70.3363 59.0865C70.4301 58.9927 70.5573 58.94 70.6899 58.94C70.8225 58.94 70.9497 58.9927 71.0434 59.0865C71.1372 59.1802 71.1899 59.3074 71.1899 59.44C71.1899 59.63 71.3999 64.24 69.7799 67.24C69.7299 67.309 69.6634 67.3643 69.5866 67.401C69.5097 67.4377 69.4249 67.4545 69.3399 67.45ZM26.5899 46.41C26.4868 46.4115 26.3858 46.3803 26.3015 46.3211C26.2171 46.2618 26.1535 46.1775 26.1199 46.08C25.3899 43.98 21.6899 43.56 16.4699 44.98C16.3373 45.0145 16.1964 44.9949 16.0782 44.9255C15.9601 44.8561 15.8743 44.7426 15.8399 44.61C15.8054 44.4774 15.825 44.3365 15.8944 44.2184C15.9638 44.1002 16.0773 44.0145 16.2099 43.98C22.1599 42.37 26.1099 42.98 27.0599 45.72C27.0903 45.7949 27.1013 45.8762 27.0919 45.9565C27.0825 46.0367 27.053 46.1133 27.0062 46.1791C26.9593 46.2449 26.8966 46.2979 26.8238 46.333C26.751 46.3681 26.6706 46.3843 26.5899 46.38V46.41ZM19.8399 41.54C19.7551 41.5398 19.6718 41.5175 19.5982 41.4755C19.5246 41.4334 19.4631 41.3729 19.4199 41.3C19.385 41.2442 19.3614 41.1821 19.3505 41.1172C19.3397 41.0523 19.3418 40.9859 19.3566 40.9218C19.3715 40.8577 19.3989 40.7972 19.4372 40.7437C19.4755 40.6902 19.524 40.6447 19.5799 40.61C25.5099 37 31.9999 40.45 32.2999 40.6C32.4072 40.6672 32.4851 40.7727 32.5178 40.8951C32.5504 41.0175 32.5353 41.1477 32.4757 41.2594C32.416 41.3712 32.3161 41.4561 32.1963 41.497C32.0764 41.538 31.9454 41.5319 31.8299 41.48C31.7599 41.48 25.5299 38.16 20.0999 41.48C20.0206 41.5242 19.9305 41.545 19.8399 41.54ZM26.5899 37.25C26.4573 37.2792 26.3185 37.2545 26.2041 37.1814C26.0897 37.1082 26.009 36.9926 25.9799 36.86C25.9507 36.7274 25.9754 36.5886 26.0485 36.4742C26.1217 36.3598 26.2373 36.2792 26.3699 36.25C32.8399 33.06 36.5599 36.19 36.7199 36.32C36.8191 36.4085 36.8799 36.5322 36.8892 36.6649C36.8985 36.7975 36.8557 36.9285 36.7699 37.03C36.6814 37.1293 36.5577 37.19 36.425 37.1994C36.2924 37.2087 36.1614 37.1659 36.0599 37.08C35.9299 36.96 32.6599 34.26 26.8099 37.15C26.745 37.1995 26.6698 37.2337 26.5899 37.25ZM34.5899 33.41C34.4923 33.4104 34.3967 33.3821 34.315 33.3288C34.2333 33.2755 34.1689 33.1995 34.1299 33.11C34.0797 32.9865 34.0799 32.8483 34.1303 32.725C34.1808 32.6016 34.2776 32.5029 34.3999 32.45C36.991 31.4956 39.7556 31.1036 42.5099 31.3C42.6435 31.3127 42.7667 31.3776 42.8528 31.4805C42.9389 31.5835 42.981 31.7163 42.9699 31.85C42.9636 31.9158 42.9444 31.9797 42.9133 32.038C42.8822 32.0963 42.8399 32.1479 42.7887 32.1897C42.7376 32.2316 42.6786 32.2629 42.6153 32.2818C42.552 32.3007 42.4856 32.3069 42.4199 32.3C39.8255 32.1175 37.2219 32.4856 34.7799 33.38C34.7186 33.4005 34.6544 33.4107 34.5899 33.41Z" fill="#5F5FF4"/>
<path d="M42.5199 59.74C41.7716 59.7409 41.0249 59.6706 40.2899 59.53C40.1594 59.5034 40.0445 59.4267 39.9697 59.3165C39.895 59.2062 39.8663 59.0711 39.8899 58.94C39.903 58.8756 39.9287 58.8145 39.9654 58.7601C40.0022 58.7057 40.0493 58.659 40.1041 58.6228C40.1589 58.5866 40.2203 58.5615 40.2848 58.549C40.3492 58.5365 40.4155 58.5369 40.4799 58.55C60.9999 62.51 98.5999 3.67 98.9999 3.07C99.0335 3.01104 99.0788 2.95953 99.133 2.91864C99.1872 2.87775 99.2492 2.84832 99.3151 2.83214C99.381 2.81597 99.4496 2.8134 99.5165 2.82457C99.5835 2.83575 99.6475 2.86045 99.7046 2.89716C99.7617 2.93387 99.8107 2.98183 99.8487 3.03811C99.8867 3.09438 99.9128 3.1578 99.9254 3.2245C99.9381 3.2912 99.937 3.35978 99.9223 3.42606C99.9076 3.49233 99.8796 3.55492 99.8399 3.61C98.3199 6 63.9999 59.74 42.5199 59.74Z" fill="#D5D5FF"/>
</svg>
