<svg width="100" height="100" viewBox="0 0 100 100" fill="none" xmlns="http://www.w3.org/2000/svg">
<g clip-path="url(#clip0)">
<path d="M99.2601 95.36C98.6301 98.45 10.7401 99.17 9.04014 95.36C7.34014 91.55 6.04014 70.9 9.04014 69.47C12.0401 68.04 99.4201 65.39 99.2601 69.47C99.1001 73.55 99.8401 92.56 99.2601 95.36Z" fill="#F8FAFB"/>
<path d="M93.8301 90.8501C92.8301 92.6201 79.3301 92.5101 77.1901 91.8501C75.0501 91.1901 76.1901 76.3901 76.1901 74.4901C76.1901 72.5901 93.0701 72.8201 93.7801 73.4901C94.4901 74.1601 95.0001 88.7101 93.8301 90.8501Z" fill="#5EB0FA"/>
<path d="M53.5501 91.23C51.7701 90.23 51.8801 76.72 52.6001 74.58C53.3201 72.44 68.0501 73.58 69.9601 73.58C71.8701 73.58 71.6201 90.46 70.9601 91.18C70.3001 91.9 55.6901 92.41 53.5501 91.23Z" fill="#1273EB"/>
<path d="M46.9099 90.8501C45.9099 92.6201 32.3999 92.5101 30.2599 91.8501C28.1199 91.1901 29.2599 76.3901 29.2599 74.4901C29.2599 72.5901 46.1499 72.8201 46.8599 73.4901C47.5699 74.1601 48.0999 88.7101 46.9099 90.8501Z" fill="#0353A5"/>
<path d="M99.2601 95.36C98.6301 98.45 10.7401 99.17 9.04014 95.36C7.34014 91.55 6.04014 70.9 9.04014 69.47C12.0401 68.04 99.4201 65.39 99.2601 69.47C99.1001 73.55 99.8401 92.56 99.2601 95.36Z" fill="#F8FAFB"/>
<path d="M26.1501 97.25C33.2501 93.98 40.4101 90.85 47.4201 87.4C53.9801 84.17 60.5101 80.82 67.3401 78.22C74.1676 75.7467 80.5324 72.1469 86.1701 67.57C61.7001 66.57 11.2901 68.38 9.04014 69.47C6.04014 70.9 7.34014 91.55 9.04014 95.36C9.50014 96.36 16.3201 97.1 26.0401 97.51C26.0315 97.4606 26.0373 97.4098 26.0568 97.3637C26.0763 97.3176 26.1087 97.2781 26.1501 97.25Z" fill="#E1E7EB"/>
<path d="M51.0901 98.4399C43.1701 98.4399 35.5001 98.3199 28.9701 98.0999C28.8419 98.0947 28.7209 98.0394 28.633 97.946C28.5451 97.8525 28.4974 97.7282 28.5001 97.5999C28.5027 97.5369 28.5177 97.475 28.5442 97.4177C28.5707 97.3605 28.6083 97.309 28.6547 97.2663C28.7012 97.2235 28.7556 97.1904 28.8148 97.1687C28.8741 97.147 28.9371 97.1373 29.0001 97.1399C56.3301 98.0799 96.4801 96.9499 98.8101 95.1399C99.1401 93.2799 98.9901 85.2099 98.8701 78.7099C98.7901 74.5499 98.7301 70.9499 98.7901 69.4099C98.7201 69.4099 97.9101 68.7299 91.1601 68.2699C91.0945 68.266 91.0302 68.2492 90.9711 68.2204C90.9119 68.1916 90.859 68.1515 90.8153 68.1023C90.7717 68.0531 90.7382 67.9957 90.7167 67.9336C90.6952 67.8714 90.6862 67.8056 90.6901 67.7399C90.6941 67.6743 90.7109 67.61 90.7397 67.5509C90.7684 67.4917 90.8086 67.4388 90.8578 67.3952C90.907 67.3515 90.9643 67.318 91.0265 67.2965C91.0887 67.275 91.1544 67.266 91.2201 67.2699C99.1401 67.8099 99.7701 68.6199 99.7401 69.4099C99.7401 70.9199 99.7401 74.4999 99.8301 78.6499C99.9601 85.6499 100.11 93.5799 99.7301 95.3799C99.6101 95.9599 99.3401 97.3099 73.8901 98.0399C66.5901 98.3299 58.7201 98.4399 51.0901 98.4399Z" fill="#CDD7DE"/>
<path d="M93.8301 90.8501C92.8301 92.6201 79.3301 92.5101 77.1901 91.8501C75.0501 91.1901 76.1901 76.3901 76.1901 74.4901C76.1901 72.5901 93.0701 72.8201 93.7801 73.4901C94.4901 74.1601 95.0001 88.7101 93.8301 90.8501Z" fill="#FAD97E"/>
<path d="M53.5501 91.23C51.7701 90.23 51.8801 76.72 52.6001 74.58C53.3201 72.44 68.0501 73.58 69.9601 73.58C71.8701 73.58 71.6201 90.46 70.9601 91.18C70.3001 91.9 55.6901 92.41 53.5501 91.23Z" fill="#FFB229"/>
<path d="M46.9099 90.8501C45.9099 92.6201 32.3999 92.5101 30.2599 91.8501C28.1199 91.1901 29.2599 76.3901 29.2599 74.4901C29.2599 72.5901 46.1499 72.8201 46.8599 73.4901C47.5699 74.1601 48.0999 88.7101 46.9099 90.8501Z" fill="#E97D16"/>
<path d="M94.9002 56.54C95.7502 59.54 18.0702 100.68 14.8102 98.08C11.5502 95.48 0.910158 77.74 2.89016 75.1C4.87016 72.46 81.2402 29.87 83.0002 33.55C84.7602 37.23 94.1202 53.79 94.9002 56.54Z" fill="#F8FAFB"/>
<path d="M36.6099 89.91C36.5196 89.9122 36.4307 89.8878 36.3543 89.8397C36.2778 89.7917 36.2172 89.7223 36.1799 89.64C36.1246 89.5259 36.1167 89.3946 36.1579 89.2747C36.1991 89.1548 36.2861 89.056 36.3999 89C61.4599 76.85 93.2199 59.1 94.3999 56.59C93.8499 54.78 89.9999 47.69 86.8999 42C84.8999 38.34 83.1999 35.18 82.5399 33.78C82.5399 33.78 81.8499 33.64 78.3899 34.97C78.2718 35.016 78.1404 35.0133 78.0243 34.9628C77.9081 34.9122 77.8167 34.8177 77.7699 34.7C77.7474 34.641 77.7368 34.578 77.7388 34.5148C77.7407 34.4517 77.7551 34.3895 77.7811 34.3319C77.8071 34.2743 77.8442 34.2224 77.8904 34.1791C77.9365 34.1359 77.9907 34.1023 78.0499 34.08C82.0499 32.53 83.0499 32.66 83.4099 33.37C84.0599 34.74 85.7699 37.89 87.7399 41.54C91.0799 47.69 94.8599 54.66 95.3599 56.43C95.5299 57.02 95.8799 58.26 75.1799 69.84C63.1799 76.54 48.4899 84.23 36.8199 89.89C36.752 89.911 36.6805 89.9178 36.6099 89.91Z" fill="#CDD7DE"/>
<path d="M26.7802 93.26C29.4502 90.74 31.0102 87.34 33.6402 84.77C36.2702 82.2 39.6402 80.08 42.3002 77.42C45.5302 74.24 47.5402 70 50.0002 66.28C52.4212 62.716 55.0316 59.2844 57.8202 56C60.8202 52.38 63.2602 48.35 66.1102 44.62C68.1102 42 70.6102 39.62 72.6102 36.92C51.2802 46.64 4.4302 73 2.8902 75.1C0.890204 77.74 11.5402 95.48 14.8102 98.1C15.4702 98.63 19.2002 97.36 24.7102 94.97C25.4368 94.4458 26.1283 93.8746 26.7802 93.26Z" fill="#E1E7EB"/>
<path d="M88 55C87.94 57 75.89 63.16 73.66 63.51C71.43 63.86 65.66 50.23 64.82 48.51C63.98 46.79 79.05 39.26 80.01 39.51C80.97 39.76 88.07 52.59 88 55Z" fill="#8080EF"/>
<path d="M52.4102 73.9199C50.4102 73.8599 44.2502 61.8099 43.9002 59.5799C43.5502 57.3499 57.1902 51.5799 58.9002 50.7399C60.6102 49.8999 68.1302 64.9999 67.8202 65.9299C67.5102 66.8599 54.8602 73.9999 52.4102 73.9199Z" fill="#4949E7"/>
<path d="M46.3401 76.64C46.2901 78.64 34.2301 84.8 32.0101 85.15C29.7901 85.5 24.0101 71.86 23.1701 70.15C22.3301 68.44 37.3901 60.89 38.3501 61.15C39.3101 61.41 46.4101 74.19 46.3401 76.64Z" fill="#2D2DAE"/>
<path d="M73.15 24.0899C75.3 26.3899 25.27 98.6499 21.15 97.8399C17.03 97.0299 -0.529972 86.1899 2.82507e-05 82.9299C0.530028 79.6699 48.74 6.69995 52 9.16995C55.26 11.6399 71.19 21.9999 73.15 24.0899Z" fill="#F8FAFB"/>
<path d="M33.2598 84.9999C33.1502 84.9986 33.0443 84.9598 32.9598 84.8899C32.861 84.8113 32.7972 84.6968 32.7822 84.5714C32.7672 84.446 32.8023 84.3197 32.8798 84.2199C48.5598 64.2199 72.9798 27.5399 72.7498 24.3899C71.4198 23.0599 64.7498 18.5299 59.3498 14.8799C55.8998 12.5399 52.9198 10.5199 51.6898 9.58995C51.6298 9.58995 50.6898 9.88995 46.6898 14.7299C46.6065 14.8264 46.4889 14.8866 46.362 14.8978C46.235 14.909 46.1087 14.8703 46.0098 14.7899C45.914 14.7084 45.854 14.5925 45.8428 14.4672C45.8316 14.3419 45.87 14.2172 45.9498 14.1199C50.6498 8.38995 51.6298 8.35995 52.2398 8.81995C53.4498 9.74995 56.4198 11.7599 59.8598 14.0799C65.6798 17.9999 72.2398 22.4199 73.4998 23.7599C73.8898 24.1799 74.9498 25.3099 60.0798 47.7599C51.3398 60.8699 40.9998 75.4299 33.6398 84.7799C33.5974 84.8431 33.5411 84.8958 33.4752 84.9339C33.4094 84.972 33.3357 84.9946 33.2598 84.9999Z" fill="#CDD7DE"/>
<path d="M39.57 44.49C40.57 36.21 41.33 27.89 42.27 19.59C27.26 39.38 0.409996 80.5 -4.3055e-06 82.93C-0.530004 86.19 17.08 97 21.18 97.84C22.13 98.03 25.53 94.31 30.18 88.46C34.4393 74.0674 37.5787 59.3669 39.57 44.49Z" fill="#E1E7EB"/>
<path d="M66.3302 25.93C67.2102 27.76 59.3302 38.7401 57.5202 40.0801C55.7102 41.4201 44.3402 32 42.7802 30.8601C41.2202 29.72 51.1502 16.1001 52.1402 15.9301C53.1302 15.7601 65.2702 23.72 66.3302 25.93Z" fill="#5EB0FA"/>
<path d="M43.4301 59.08C41.6001 59.96 30.6201 52.08 29.2801 50.27C27.9401 48.46 37.4001 37.08 38.5001 35.53C39.6001 33.98 53.2601 43.89 53.4301 44.89C53.6001 45.89 45.6401 58 43.4301 59.08Z" fill="#1273EB"/>
<path d="M39.2999 64.29C40.1799 66.12 32.2999 77.1 30.4899 78.44C28.6799 79.78 17.3099 70.32 15.7499 69.22C14.1899 68.12 24.1199 54.46 25.1099 54.29C26.0999 54.12 38.2399 62.08 39.2999 64.29Z" fill="#0353A5"/>
<path d="M38.8998 5.29998C41.8998 6.29998 30.7298 93.53 26.7198 94.7C22.7098 95.87 2.08983 94.34 1.06983 91.2C0.0498269 88.06 9.21983 1.09998 13.2398 1.79998C17.2598 2.49998 36.1998 4.34998 38.8998 5.29998Z" fill="#F8FAFB"/>
<path d="M21.8402 95.56C15.6802 95.56 6.25022 94.56 2.45022 92.9C2.39112 92.8744 2.33765 92.8374 2.29285 92.7911C2.24806 92.7449 2.21281 92.6902 2.18913 92.6303C2.16546 92.5704 2.15381 92.5065 2.15485 92.4421C2.15589 92.3777 2.16961 92.3141 2.19522 92.255C2.22083 92.1959 2.25782 92.1424 2.3041 92.0976C2.35037 92.0528 2.40501 92.0176 2.46491 91.9939C2.5248 91.9703 2.58877 91.9586 2.65317 91.9596C2.71756 91.9607 2.78112 91.9744 2.84022 92C7.77022 94.19 23.3002 95.17 26.5902 94.21C26.7202 94.13 27.5302 93.34 29.1302 85.92C33.9102 63.86 40.4302 8.80002 38.6602 5.69002C37.5642 5.40936 36.4522 5.19564 35.3302 5.05002C35.2682 5.04148 35.2085 5.02065 35.1547 4.98873C35.1008 4.95681 35.0539 4.91446 35.0166 4.86416C34.9794 4.81386 34.9525 4.75662 34.9377 4.69581C34.9228 4.63499 34.9203 4.57183 34.9302 4.51002C34.94 4.44759 34.9619 4.3877 34.9949 4.33378C35.0278 4.27986 35.0711 4.23297 35.1222 4.19581C35.1733 4.15865 35.2312 4.13194 35.2926 4.11722C35.3541 4.10249 35.4178 4.10005 35.4802 4.11002C36.69 4.25431 37.8869 4.49168 39.0602 4.82002C39.5502 4.99002 39.9802 5.55002 39.8502 10.42C39.3802 27.79 30.8502 93.95 26.8502 95.13C25.2023 95.4658 23.5212 95.61 21.8402 95.56Z" fill="#CDD7DE"/>
<path d="M33.6901 10.07C35.3201 11.29 33.3801 24.67 32.3901 26.69C31.4001 28.71 17.0001 25.55 15.0601 25.29C13.1201 25.03 15.6901 8.34001 16.4901 7.73001C17.2901 7.12001 31.7301 8.60001 33.6901 10.07Z" fill="#A9FFAB"/>
<path d="M28.6301 50C27.4101 51.67 14.0001 49.73 12.0001 48.73C10.0001 47.73 13.1401 33.29 13.4001 31.41C13.6601 29.53 30.3601 32 31.0001 32.84C31.6401 33.68 30.1001 48.08 28.6301 50Z" fill="#69E781"/>
<path d="M27.3602 56.56C28.9902 57.78 27.0502 71.16 26.0602 73.19C25.0702 75.22 10.6102 72 8.73022 71.79C6.85022 71.58 9.36022 54.79 10.1602 54.22C10.9602 53.65 25.4002 55.1 27.3602 56.56Z" fill="#2BC288"/>
<path d="M15.4098 81.4999C14.9819 81.5905 14.5955 81.8188 14.3098 82.15C14.1061 82.2696 13.9289 82.4296 13.789 82.62C13.6491 82.8104 13.5494 83.0273 13.4961 83.2574C13.4427 83.4876 13.4369 83.7262 13.4788 83.9588C13.5207 84.1913 13.6095 84.4129 13.7398 84.61C13.923 84.9985 14.2034 85.3334 14.5537 85.5821C14.904 85.8308 15.3125 85.9851 15.7398 86.0299C16.1861 86.0477 16.6255 85.9156 16.9879 85.6546C17.3504 85.3936 17.6151 85.0188 17.7398 84.5899C17.9573 83.8901 17.8927 83.1329 17.5598 82.48C17.352 82.1094 17.0315 81.8147 16.645 81.6385C16.2584 81.4623 15.8258 81.4138 15.4098 81.4999Z" fill="#B8C6D1"/>
</g>
<defs>
<clipPath id="clip0">
<rect width="100" height="100" fill="white"/>
</clipPath>
</defs>
</svg>
