<svg width="100" height="100" viewBox="0 0 100 100" fill="none" xmlns="http://www.w3.org/2000/svg">
<g clip-path="url(#clip0)">
<path d="M75.7498 18.65C65.8798 11.24 52.9498 12.65 42.5298 17.87C40.1498 16.63 39.4298 14.62 38.5298 12.2C38.4498 11.99 38.3798 11.76 38.2998 11.54C38.1289 11.6769 37.992 11.8515 37.8998 12.05C36.2198 15.63 34.4898 19.19 32.8998 22.8C32.2498 24.26 28.1598 31.45 30.1198 32.48C30.5584 32.6651 31.0417 32.7173 31.5098 32.63C38.2198 32.05 44.5698 30.35 51.1498 29.04C51.5533 28.9453 51.9087 28.7072 52.1498 28.37C51.8398 28.79 48.1498 24.57 47.8698 24.16C47.3598 23.37 46.6298 22.53 47.0398 21.65C47.6998 20.22 51.0398 19.44 52.4298 19.02C55.8394 17.9019 59.4557 17.5596 63.0145 18.018C66.5734 18.4765 69.9849 19.7242 72.9998 21.67C87.3298 31.21 83.8998 47.47 74.9998 59.53C66.8898 70.53 53.3998 78.24 39.5598 73.91C29.9198 70.91 25.1198 62.81 23.4998 53.7C22.9998 53.62 22.4998 53.52 22.0098 53.42C23.2998 62.9 27.7998 71.51 37.3498 75.42C52.9998 81.85 68.9298 73 78.1798 60.28C87.8898 46.92 90.3398 29.61 75.7498 18.65Z" fill="#FFB229"/>
<path d="M67.3702 67.53C59.5902 73.82 49.6602 77.07 39.5402 73.91C29.9002 70.91 25.1002 62.81 23.4802 53.7C22.9802 53.62 22.4802 53.52 21.9902 53.42C23.2802 62.9 27.7802 71.51 37.3302 75.42C48.6702 80.07 60.1602 76.71 69.1502 69.66C68.5302 69 67.9402 68.26 67.3702 67.53Z" fill="#F48F10"/>
<path d="M36.5602 41C36.5602 41 73.5602 77.72 77.1402 81.08C81.3248 85.0785 85.1899 89.3984 88.7002 94C91.0402 97.35 94.2302 98.25 96.7902 95.78C99.3502 93.31 97.0902 91.94 93.7902 88.21C90.4902 84.48 80.0502 74.37 75.2102 69C68.8302 61.92 59.6602 53.56 50.8202 45.41C42.2102 37.48 35.6902 28.63 33.4802 30.33C31.2702 32.03 36.5602 41 36.5602 41Z" fill="#90CBF8"/>
<path d="M0.0498562 32C-0.890144 19.08 11.3799 -2.86995 32.9399 0.810049C54.4999 4.49005 63.4099 19.05 62.4399 35.41C61.4699 51.7701 46.7999 63.0801 26.8299 62.18C6.85986 61.28 1.10986 46.4 0.0498562 32Z" fill="#90CBF8"/>
<path d="M51.69 50.09C47.86 46.52 41.01 48.72 36.69 50.22C31.98 51.87 27.16 53.97 22.06 53.22C19.7494 52.81 17.5635 51.8756 15.6705 50.4888C13.7774 49.1019 12.2275 47.2995 11.14 45.22C9.20239 41.8758 8.16851 38.0849 8.13998 34.22C7.22331 34.5961 6.22157 34.7158 5.24211 34.566C4.26265 34.4163 3.3424 34.0028 2.57998 33.37C1.54277 32.5316 0.662478 31.5158 -0.0200195 30.37C-0.0200195 30.92 -0.0200195 31.45 0.0299805 31.96C1.10998 46.4 6.84998 61.29 26.83 62.18C36.4 62.61 44.75 60.18 50.96 55.84C50.26 55.12 50.24 53.31 50.34 52.55C50.4474 51.5839 50.9327 50.6995 51.69 50.09Z" fill="#5EB0FA"/>
<path d="M6.22022 31.5C6.22022 17.73 13.6402 6.98004 26.8302 5.50004C40.0202 4.02004 53.5002 15.88 56.3702 21.92C59.2402 27.96 60.2002 40.33 55.4402 45.41C50.6802 50.49 45.1102 55.33 29.0802 56.41C16.2502 57.31 6.21022 48 6.22022 31.5Z" fill="#C5E9FF"/>
<path d="M33.2501 14C33.2501 13 32.1201 12.08 31.3501 11.61C31.0292 11.4138 30.695 11.24 30.3501 11.09C28.5977 11.1925 26.8696 11.5496 25.2201 12.15C20.7147 13.7894 16.9842 17.0527 14.7601 21.3C13.6401 23.61 12.4501 27.84 15.1701 29.44C15.2865 29.506 15.4182 29.5406 15.552 29.5403C15.6859 29.54 15.8173 29.5048 15.9334 29.4381C16.0495 29.3715 16.1463 29.2758 16.2141 29.1603C16.2819 29.0449 16.3184 28.9138 16.3201 28.78C16.1901 26.78 18.8401 23.84 19.9901 22.34C22.0553 19.4062 25.0789 17.2844 28.5401 16.34C29.3773 16.1453 30.2312 16.0314 31.0901 16C32.1201 15.63 33.1901 15.15 33.2501 14Z" fill="#F8FAFB"/>
<path d="M32.1799 32.7799C40.6499 32.1099 53.5399 30.7799 55.0799 31.3099C56.7199 30.1999 55.0799 27.7399 55.0799 27.7399C57.9099 26.5099 61.5599 24.1699 61.8999 26.3299C60.7999 22.0899 60.2699 20.6199 60.2699 20.6199C58.6299 21.6199 54.0399 24.6199 54.0399 24.6199C52.0399 21.4099 51.7599 16.1999 46.5199 20.6199C42.6899 23.8199 33.5199 29.2499 31.5199 31.5399C31.4242 31.656 31.3651 31.7978 31.35 31.9474C31.335 32.0971 31.3646 32.2478 31.4353 32.3806C31.506 32.5134 31.6144 32.6222 31.747 32.6933C31.8795 32.7644 32.0302 32.7945 32.1799 32.7799Z" fill="#90CBF8"/>
<path d="M27.8401 57.0801C22.5871 57.1768 17.501 55.2341 13.6501 51.6601C8.69011 47.0001 6.07011 40.0601 6.08011 31.5001C6.08011 24.7901 7.81011 18.8001 11.0801 14.1801C11.1703 14.0474 11.3094 13.9561 11.467 13.9261C11.6245 13.8961 11.7875 13.9299 11.9201 14.0201C12.0527 14.1102 12.1441 14.2494 12.1741 14.4069C12.2041 14.5645 12.1703 14.7274 12.0801 14.8601C8.91011 19.2801 7.25011 25.0001 7.25011 31.5001C7.25011 39.7201 9.74011 46.4001 14.4501 50.8001C16.4585 52.6436 18.831 54.0455 21.4147 54.9153C23.9984 55.7852 26.7358 56.1036 29.4501 55.8501C42.5301 54.9501 48.2401 51.4701 51.7501 48.5401C51.8708 48.4407 52.026 48.3933 52.1817 48.4083C52.3373 48.4233 52.4806 48.4995 52.5801 48.6201C52.629 48.679 52.6658 48.7471 52.6882 48.8203C52.7107 48.8935 52.7184 48.9705 52.711 49.0467C52.7036 49.123 52.6811 49.197 52.6449 49.2645C52.6087 49.332 52.5595 49.3917 52.5001 49.4401C48.8901 52.4901 43.0001 56.1001 29.5701 57.0001C29.0001 57.0601 28.4101 57.0801 27.8401 57.0801Z" fill="#5EB0FA"/>
<path d="M13.9998 39.44C14.2175 39.6208 14.4558 39.7752 14.7098 39.9C14.8698 39.97 15.6298 40.31 15.1398 39.98C16.0698 40.62 17.7198 39.78 17.1398 38.55C17.1998 38.67 17.1398 38.94 17.1398 38.55C17.1548 38.3169 17.1548 38.0831 17.1398 37.85C17.055 37.3637 16.9414 36.8829 16.7998 36.41C16.6098 35.64 16.5498 34.84 16.3698 34.06C16.2176 33.6376 15.9277 33.2788 15.5468 33.0411C15.1659 32.8035 14.7161 32.701 14.2698 32.75C13.8277 32.8071 13.4148 33.0021 13.0899 33.3073C12.7649 33.6125 12.5445 34.0123 12.4598 34.45C12.2102 35.6088 12.3729 36.8183 12.9198 37.87C13.1544 38.4693 13.524 39.0066 13.9998 39.44Z" fill="#F8FAFB"/>
<path d="M95.2302 86.37C91.2302 81.68 78.2301 69.31 72.4201 62.58C70.9301 60.87 70.0001 59.83 68.2501 58C67.8395 57.6584 67.3491 57.4261 66.8246 57.3247C66.3002 57.2233 65.7586 57.2561 65.2501 57.42C61.9301 58.8 60.5401 60.79 59.3401 63.61C58.7201 65.07 58.3401 66.13 59.4701 67.24C66.0001 73.63 71.1301 78.61 72.4701 79.84C76.9101 83.92 83.7901 91.65 86.4701 96.01C89.1501 100.37 93.6002 100.95 97.9102 96.74C102.22 92.53 99.2002 91.06 95.2302 86.37Z" fill="#1273EB"/>
<path d="M98.3098 91.1099C96.0798 90.4799 93.5198 92.5599 91.9298 93.9199C90.3398 95.2799 88.7798 98.7499 91.6798 99.5899C93.6798 99.7099 95.7798 98.7999 97.8898 96.7399C99.7398 94.9399 100.24 93.6299 99.8898 92.3599C99.7322 92.0499 99.5094 91.7777 99.2367 91.5619C98.964 91.3462 98.6478 91.192 98.3098 91.1099Z" fill="#0161CB"/>
<path d="M61.6399 36.35H61.5499C61.3965 36.3253 61.2589 36.2412 61.1672 36.1157C61.0754 35.9903 61.0369 35.8337 61.0599 35.68C61.6423 31.2649 61.1813 26.7748 59.7137 22.5702C58.2462 18.3656 55.8131 14.5638 52.6099 11.47C42.9999 2.12997 28.4299 -0.690026 17.1799 4.61997C17.0388 4.68258 16.8791 4.68842 16.7338 4.63627C16.5885 4.58413 16.469 4.47801 16.3999 4.33997C16.3347 4.19926 16.3275 4.03851 16.3799 3.89254C16.4323 3.74656 16.5401 3.62709 16.6799 3.55997C28.3599 -2.00003 43.4699 0.999974 53.4199 10.62C56.7557 13.8456 59.2893 17.808 60.8175 22.1894C62.3457 26.5709 62.826 31.2494 62.2199 35.85C62.1966 35.9878 62.1259 36.1132 62.0201 36.2045C61.9142 36.2958 61.7797 36.3473 61.6399 36.35Z" fill="#C5E9FF"/>
<path d="M48.7002 21.5C46.1902 18.5 43.7002 15.45 41.4302 12.27C41.3267 12.1208 41.19 11.9978 41.0307 11.9107C40.8715 11.8235 40.6941 11.7746 40.5127 11.7678C40.3313 11.761 40.1508 11.7965 39.9855 11.8715C39.8202 11.9465 39.6746 12.059 39.5602 12.2C37.0834 15.3125 34.9759 18.7018 33.2802 22.3C32.6302 23.76 28.5402 31 30.5002 32C30.9411 32.1767 31.423 32.2253 31.8902 32.14C37.4302 31.66 45.2602 28.52 51.1502 26.99C51.3433 26.9385 51.52 26.8388 51.664 26.7003C51.808 26.5618 51.9145 26.389 51.9734 26.1982C52.0324 26.0073 52.0419 25.8046 52.0011 25.609C51.9603 25.4134 51.8706 25.2314 51.7402 25.08C50.7202 23.8933 49.7069 22.7 48.7002 21.5Z" fill="#FFB229"/>
<path d="M75.75 18.65C66.41 11.65 54.33 12.52 44.23 17.07C45.36 18.34 46.47 19.64 47.54 20.97C48.75 19.97 51.25 19.37 52.37 19.02C55.7796 17.9019 59.3959 17.5595 62.9548 18.018C66.5136 18.4765 69.9251 19.7242 72.94 21.67C81.94 27.67 83.94 36.41 81.94 45.05L85.1 46C87.62 36.08 85.48 26 75.75 18.65Z" fill="#FFB229"/>
<path d="M63.2102 68.2401C63.1331 68.235 63.0577 68.2146 62.9886 68.1801C62.9194 68.1455 62.8579 68.0974 62.8076 68.0387C62.7573 67.9801 62.7192 67.9119 62.6956 67.8383C62.672 67.7646 62.6634 67.6871 62.6702 67.6101C62.8302 65.4701 65.0202 62.8201 66.8802 61.8801C67.1899 61.6726 67.5485 61.5496 67.9203 61.5233C68.2921 61.497 68.6644 61.5682 69.0002 61.7301C69.1203 61.8178 69.2029 61.9476 69.2313 62.0936C69.2598 62.2396 69.232 62.391 69.1537 62.5174C69.0753 62.6438 68.9521 62.7359 68.8087 62.7754C68.6652 62.8148 68.5122 62.7986 68.3802 62.7301C68.2002 62.6201 67.8102 62.7301 67.3802 62.9201C65.8702 63.6901 63.9402 65.9901 63.8102 67.7001C63.7953 67.8486 63.7256 67.9862 63.6146 68.086C63.5037 68.1859 63.3595 68.2408 63.2102 68.2401ZM66.5802 71.8801C66.4264 71.8648 66.2844 71.7908 66.1838 71.6735C66.0832 71.5561 66.0318 71.4044 66.0402 71.2501C66.2102 69.1001 68.4002 66.4501 70.2502 65.5101C70.5691 65.2922 70.9407 65.1642 71.326 65.1396C71.7114 65.115 72.0963 65.1946 72.4402 65.3701C72.5603 65.4578 72.6429 65.5876 72.6713 65.7336C72.6998 65.8796 72.672 66.031 72.5937 66.1574C72.5153 66.2838 72.3921 66.3759 72.2487 66.4154C72.1052 66.4548 71.9522 66.4386 71.8202 66.3701C71.6302 66.2501 71.2502 66.3201 70.8202 66.5501C69.3102 67.3201 67.3802 69.6201 67.2502 71.3401C67.2442 71.4205 67.2217 71.4988 67.1842 71.5702C67.1467 71.6416 67.0949 71.7045 67.0321 71.7551C66.9694 71.8057 66.8969 71.8429 66.8191 71.8644C66.7414 71.8859 66.6601 71.8912 66.5802 71.8801ZM69.9402 75.5101C69.7864 75.4948 69.6444 75.4208 69.5438 75.3034C69.4432 75.1861 69.3918 75.0344 69.4002 74.8801C69.5602 72.7301 71.7602 70.0801 73.6102 69.1401C73.9258 68.9325 74.2898 68.8104 74.6667 68.7859C75.0436 68.7613 75.4204 68.8351 75.7602 69.0001C75.8259 69.0408 75.8828 69.0943 75.9276 69.1573C75.9723 69.2203 76.004 69.2917 76.0208 69.3672C76.0375 69.4426 76.0391 69.5207 76.0252 69.5967C76.0114 69.6728 75.9825 69.7453 75.9402 69.8101C75.9003 69.8752 75.8479 69.9318 75.786 69.9767C75.7242 70.0215 75.6541 70.0537 75.5797 70.0713C75.5054 70.089 75.4283 70.0918 75.3529 70.0795C75.2774 70.0673 75.2052 70.0403 75.1402 70.0001C74.9502 69.8801 74.5602 70.0001 74.1402 70.1901C72.6302 70.9601 70.7002 73.2601 70.5702 74.9701C70.5652 75.0472 70.5448 75.1226 70.5102 75.1917C70.4757 75.2608 70.4276 75.3224 70.3689 75.3727C70.3102 75.423 70.2421 75.4611 70.1684 75.4847C70.0948 75.5083 70.0172 75.5169 69.9402 75.5101ZM73.3102 79.1401C73.2326 79.1364 73.1566 79.1169 73.0867 79.0828C73.0169 79.0487 72.9548 79.0006 72.9042 78.9416C72.8537 78.8826 72.8157 78.8139 72.7926 78.7397C72.7696 78.6655 72.762 78.5873 72.7702 78.5101C72.9302 76.3701 75.1302 73.7201 76.9802 72.7801C77.2962 72.56 77.6664 72.4307 78.0507 72.406C78.435 72.3813 78.8187 72.4623 79.1602 72.6401C79.2259 72.6808 79.2829 72.734 79.328 72.7968C79.3731 72.8595 79.4054 72.9305 79.423 73.0057C79.4406 73.0809 79.4433 73.1589 79.4308 73.2351C79.4183 73.3114 79.3909 73.3844 79.3502 73.4501C79.3095 73.5157 79.2563 73.5727 79.1935 73.6178C79.1308 73.6629 79.0598 73.6952 78.9846 73.7128C78.9094 73.7305 78.8314 73.7331 78.7552 73.7206C78.6789 73.7081 78.6059 73.6808 78.5402 73.6401C78.3602 73.5301 77.9702 73.6401 77.5402 73.8301C76.0002 74.5901 74.0002 76.8901 73.9002 78.6001C73.8877 78.7477 73.82 78.8852 73.7107 78.9853C73.6014 79.0853 73.4584 79.1406 73.3102 79.1401ZM76.6802 82.7801H76.6302C76.4764 82.7648 76.3344 82.6908 76.2338 82.5735C76.1332 82.4561 76.0818 82.3044 76.0902 82.1501C76.2602 80.0001 78.4502 77.3501 80.3102 76.4101C80.6271 76.1921 80.9971 76.064 81.3809 76.0393C81.7647 76.0147 82.1481 76.0944 82.4902 76.2701C82.5623 76.3075 82.6259 76.3595 82.677 76.4226C82.7281 76.4858 82.7656 76.5589 82.7871 76.6372C82.8087 76.7155 82.8138 76.7975 82.8022 76.8779C82.7906 76.9583 82.7625 77.0355 82.7197 77.1045C82.6769 77.1736 82.6203 77.233 82.5534 77.2792C82.4865 77.3253 82.4108 77.3572 82.3311 77.3727C82.2514 77.3883 82.1693 77.3872 82.09 77.3695C82.0106 77.3518 81.9358 77.318 81.8702 77.2701C81.6902 77.1501 81.3002 77.2701 80.8702 77.4501C79.3602 78.2201 77.4302 80.5201 77.2902 82.2401C77.2775 82.3912 77.207 82.5317 77.0934 82.6322C76.9798 82.7328 76.8318 82.7857 76.6802 82.7801ZM80.0502 86.4101C79.8964 86.3948 79.7544 86.3208 79.6538 86.2034C79.5532 86.0861 79.5018 85.9344 79.5102 85.7801C79.6802 83.6401 81.8702 80.9801 83.7202 80.0401C84.0399 79.8242 84.4113 79.6974 84.7962 79.6728C85.1812 79.6482 85.5657 79.7267 85.9102 79.9001C86.0425 79.9826 86.1367 80.1141 86.1723 80.2659C86.2079 80.4176 86.182 80.5773 86.1002 80.7101C86.0177 80.8423 85.8862 80.9365 85.7344 80.9721C85.5827 81.0077 85.423 80.9818 85.2902 80.9001C85.1002 80.7801 84.7102 80.8501 84.2902 81.0901C82.7802 81.8601 80.8502 84.1601 80.7202 85.8701C80.7156 85.951 80.6941 86.0301 80.6571 86.1022C80.62 86.1744 80.5683 86.2379 80.5051 86.2888C80.442 86.3397 80.3689 86.3768 80.2905 86.3977C80.2122 86.4185 80.1303 86.4228 80.0502 86.4101ZM83.4102 90.0001C83.3326 89.9964 83.2565 89.9769 83.1867 89.9428C83.1169 89.9087 83.0548 89.8606 83.0042 89.8016C82.9537 89.7426 82.9157 89.6739 82.8926 89.5997C82.8696 89.5255 82.862 89.4473 82.8702 89.3701C83.0467 88.333 83.4308 87.3422 83.9996 86.4572C84.5684 85.5722 85.3101 84.8113 86.1802 84.2201C86.6491 83.8269 87.1977 83.5402 87.7881 83.3796C88.3786 83.219 88.9968 83.1885 89.6002 83.2901C89.7454 83.3342 89.868 83.4327 89.9425 83.5649C90.017 83.6971 90.0377 83.853 90.0002 84.0001C89.958 84.1497 89.8594 84.2771 89.7251 84.3555C89.5908 84.4338 89.4313 84.457 89.2802 84.4201C88.8438 84.3703 88.4018 84.4113 87.9819 84.5404C87.5621 84.6694 87.1734 84.8838 86.8402 85.1701C86.1033 85.6673 85.4726 86.3062 84.985 87.0496C84.4974 87.793 84.1627 88.626 84.0002 89.5001C83.9786 89.6405 83.907 89.7683 83.7986 89.8602C83.6902 89.9521 83.5523 90.0017 83.4102 90.0001ZM86.7802 93.6801C86.6264 93.6648 86.4844 93.5908 86.3838 93.4734C86.2832 93.3561 86.2318 93.2044 86.2402 93.0501C86.4002 91.0501 88.6902 88.6801 90.7202 87.6501C91.1144 87.3723 91.573 87.1998 92.0526 87.1491C92.5321 87.0983 93.0166 87.171 93.4602 87.3601C93.5254 87.4 93.582 87.4524 93.6268 87.5142C93.6717 87.5761 93.7038 87.6462 93.7215 87.7206C93.7392 87.7949 93.7419 87.872 93.7297 87.9474C93.7175 88.0228 93.6905 88.0951 93.6502 88.1601C93.6103 88.2266 93.5575 88.2844 93.4948 88.3301C93.4321 88.3758 93.3609 88.4085 93.2854 88.4262C93.2099 88.444 93.1316 88.4463 93.0551 88.4333C92.9786 88.4202 92.9056 88.3919 92.8402 88.3501C92.6402 88.2301 92.0602 88.2801 91.2502 88.7001C89.5302 89.5701 87.5302 91.6101 87.4102 93.1401C87.3975 93.2949 87.3241 93.4384 87.2062 93.5395C87.0883 93.6406 86.9352 93.6911 86.7802 93.6801ZM90.1502 97.3101H90.1002C89.9464 97.2948 89.8044 97.2208 89.7038 97.1035C89.6032 96.9861 89.5518 96.8344 89.5602 96.6801C89.6702 95.2401 90.8202 93.5901 92.6302 92.2501C93.8102 91.3901 95.4702 90.5601 96.6302 90.8201C96.7867 90.8572 96.922 90.955 97.0064 91.0919C97.0908 91.2288 97.1174 91.3936 97.0802 91.5501C97.0431 91.7065 96.9453 91.8419 96.8084 91.9262C96.6715 92.0106 96.5067 92.0372 96.3502 92.0001C95.2388 92.0621 94.1812 92.4992 93.3502 93.2401C92.0459 94.0398 91.1112 95.3233 90.7502 96.8101C90.7305 96.9531 90.658 97.0837 90.547 97.1762C90.436 97.2687 90.2946 97.3164 90.1502 97.3101Z" fill="#0353A5"/>
<path d="M33.4798 29.28C33.395 29.2798 33.3112 29.2619 33.2337 29.2274C33.1562 29.193 33.0868 29.1428 33.0298 29.08C32.9639 29.0025 32.9191 28.9093 32.8998 28.8095C32.8806 28.7096 32.8874 28.6064 32.9198 28.51C33.8239 25.6347 35.0766 22.8809 36.6498 20.31C36.6905 20.2443 36.744 20.1874 36.807 20.1427C36.8701 20.0979 36.9414 20.0662 37.0169 20.0495C37.0924 20.0327 37.1704 20.0312 37.2465 20.045C37.3225 20.0588 37.3951 20.0877 37.4598 20.13C37.5263 20.1699 37.5841 20.2228 37.6299 20.2854C37.6756 20.3481 37.7083 20.4193 37.726 20.4948C37.7437 20.5704 37.7461 20.6487 37.733 20.7251C37.7199 20.8016 37.6916 20.8747 37.6498 20.94C36.2844 23.1373 35.1803 25.4865 34.3598 27.94C38.4363 27.1398 42.4474 26.0368 46.3598 24.64C46.507 24.5887 46.6685 24.5979 46.8091 24.6653C46.9496 24.7328 47.0577 24.8531 47.1098 25C47.1366 25.0728 47.1484 25.1502 47.1448 25.2277C47.1411 25.3052 47.1219 25.3811 47.0883 25.4511C47.0547 25.521 47.0075 25.5835 46.9493 25.6348C46.8912 25.6862 46.8233 25.7253 46.7498 25.75C42.4484 27.2795 38.0308 28.46 33.5398 29.28H33.4798Z" fill="#FAD97E"/>
</g>
<defs>
<clipPath id="clip0">
<rect width="100" height="100" fill="white"/>
</clipPath>
</defs>
</svg>
