<svg width="32" height="33" viewBox="0 0 32 33" fill="none" xmlns="http://www.w3.org/2000/svg">
<path d="M0.282561 15.556C8.1766 15.556 14.7285 9.27896 15.2053 1.23427C15.2053 0.927629 15.1876 0.602955 15.1876 0.296318C15.1876 0.206131 15.1876 0.115944 15.1876 0.0257568C6.99338 0.440618 0.388521 7.18662 0 15.556C0.0883002 15.556 0.19426 15.556 0.282561 15.556Z" fill="white"/>
<path d="M16.7945 0.0257568C16.7945 0.115944 16.7945 0.206131 16.7945 0.296318C16.7945 0.620992 16.7945 0.945666 16.7769 1.2523C17.2537 9.27896 23.8056 15.574 31.6996 15.574C31.7879 15.574 31.8939 15.574 31.9822 15.574C31.5936 7.18662 24.9888 0.440618 16.7945 0.0257568ZM24.2294 9.13467C23.2581 9.13467 22.4634 8.32298 22.4634 7.33092C22.4634 6.33886 23.2581 5.52718 24.2294 5.52718C25.2007 5.52718 25.9954 6.33886 25.9954 7.33092C25.9954 8.32298 25.2007 9.13467 24.2294 9.13467Z" fill="white"/>
<path d="M15.1876 32.6916C15.1876 32.6014 15.1876 32.5112 15.1876 32.421C15.1876 32.0963 15.2053 31.7716 15.2053 31.465C14.7285 23.4383 8.1766 17.1613 0.282561 17.1613C0.19426 17.1613 0.0883002 17.1613 0 17.1613C0.388521 25.5307 6.99338 32.2767 15.1876 32.6916Z" fill="white"/>
<path d="M31.6996 17.1613C23.8056 17.1613 17.2537 23.4383 16.7769 31.483C16.7945 31.7897 16.7945 32.1144 16.7945 32.439C16.7945 32.5292 16.7945 32.6194 16.7945 32.7096C24.9888 32.2947 31.5936 25.5487 31.9822 17.1794C31.8939 17.1613 31.7879 17.1613 31.6996 17.1613Z" fill="white"/>
</svg>
