<svg width="201" height="38" viewBox="0 0 201 38" fill="none" xmlns="http://www.w3.org/2000/svg">
<path d="M14.4448 9.2689C16.2131 9.2689 17.7374 9.63474 19.0178 10.3664C20.2983 11.0778 21.3653 12.1347 22.2189 13.537L20.1763 15.1224C19.4243 13.8216 18.5707 12.907 17.6154 12.3785C16.6805 11.8298 15.5423 11.5554 14.2009 11.5554C12.575 11.5554 11.386 11.8806 10.634 12.531C9.88198 13.1814 9.50598 13.974 9.50598 14.9089C9.50598 15.6203 9.72955 16.2504 10.1767 16.7991C10.6238 17.3276 11.5181 17.7442 12.8595 18.0491L17.2191 19.0247C19.1499 19.4515 20.4914 20.1019 21.2434 20.9758C22.0157 21.8294 22.4019 22.8965 22.4019 24.1769C22.4019 25.3151 22.0767 26.3313 21.4263 27.2256C20.7962 28.0995 19.902 28.7804 18.7435 29.2682C17.585 29.756 16.2232 29.9999 14.6582 29.9999C12.4835 29.9999 10.6848 29.5731 9.26208 28.7194C7.83937 27.8455 6.75201 26.7886 6 25.5488L8.13407 23.8111C8.72348 24.9696 9.55679 25.9147 10.634 26.6463C11.7315 27.3577 13.1237 27.7134 14.8107 27.7134C16.3757 27.7134 17.6053 27.4288 18.4996 26.8598C19.4142 26.2907 19.8715 25.4675 19.8715 24.3903C19.8715 23.7399 19.6581 23.1607 19.2312 22.6526C18.8044 22.1241 18.0016 21.7278 16.8228 21.4636L12.0973 20.3966C10.2275 19.9901 8.89624 19.3295 8.10359 18.4149C7.33126 17.5003 6.94509 16.4434 6.94509 15.2443C6.94509 14.1671 7.2398 13.1814 7.82921 12.2871C8.43894 11.3725 9.30273 10.6408 10.4206 10.092C11.5587 9.54328 12.9002 9.2689 14.4448 9.2689Z" fill="#360A14"/>
<path d="M33.3657 14.1468C34.9306 14.1468 36.2314 14.5126 37.268 15.2443C38.3045 15.9557 39.1073 16.9414 39.6764 18.2015L37.3594 19.299C37.0342 18.3235 36.5363 17.5816 35.8656 17.0735C35.2152 16.5451 34.3616 16.2809 33.3047 16.2809C31.7803 16.2809 30.5812 16.7991 29.7072 17.8357C28.8536 18.8519 28.4268 20.2645 28.4268 22.0733C28.4268 23.8822 28.8536 25.3049 29.7072 26.3415C30.5812 27.3577 31.7803 27.8658 33.3047 27.8658C34.5038 27.8658 35.4591 27.5914 36.1704 27.0427C36.8818 26.4939 37.3493 25.7216 37.5728 24.7257L39.8288 25.5183C39.3207 26.9207 38.5179 28.0182 37.4204 28.8109C36.3432 29.6036 34.9916 29.9999 33.3657 29.9999C31.9429 29.9999 30.6727 29.6849 29.5548 29.0548C28.437 28.4247 27.563 27.5203 26.933 26.3415C26.3029 25.1423 25.9879 23.7196 25.9879 22.0733C25.9879 20.427 26.3029 19.0145 26.933 17.8357C27.563 16.6365 28.437 15.7219 29.5548 15.0919C30.6727 14.4618 31.9429 14.1468 33.3657 14.1468Z" fill="#360A14"/>
<path d="M44.1144 29.695V7.4397H46.5533V16.7382C47.0817 15.8235 47.7829 15.163 48.6569 14.7565C49.5308 14.35 50.4861 14.1468 51.5226 14.1468C52.6202 14.1468 53.6161 14.3602 54.5103 14.787C55.4046 15.1935 56.116 15.8236 56.6444 16.6772C57.1932 17.5308 57.4676 18.6182 57.4676 19.9393V29.695H55.0286V20.7929C55.0286 19.106 54.6628 17.9373 53.9311 17.2869C53.2197 16.6162 52.3356 16.2809 51.2788 16.2809C50.5471 16.2809 49.8154 16.4536 49.0837 16.7991C48.352 17.1446 47.7423 17.7137 47.2545 18.5064C46.787 19.2787 46.5533 20.3153 46.5533 21.616V29.695H44.1144Z" fill="#360A14"/>
<path d="M69.3007 14.1468C70.7437 14.1468 72.014 14.4618 73.1115 15.0919C74.2294 15.7219 75.1033 16.6365 75.7334 17.8357C76.3635 19.0145 76.6785 20.427 76.6785 22.0733C76.6785 23.7196 76.3635 25.1423 75.7334 26.3415C75.1033 27.5203 74.2294 28.4247 73.1115 29.0548C72.014 29.6849 70.7437 29.9999 69.3007 29.9999C67.878 29.9999 66.6077 29.6849 65.4899 29.0548C64.372 28.4247 63.4981 27.5203 62.868 26.3415C62.2379 25.1423 61.9229 23.7196 61.9229 22.0733C61.9229 20.427 62.2379 19.0145 62.868 17.8357C63.4981 16.6365 64.372 15.7219 65.4899 15.0919C66.6077 14.4618 67.878 14.1468 69.3007 14.1468ZM69.3007 16.2504C67.756 16.2504 66.5467 16.7686 65.6728 17.8052C64.7988 18.8417 64.3619 20.2645 64.3619 22.0733C64.3619 23.8822 64.7988 25.3049 65.6728 26.3415C66.5467 27.378 67.756 27.8963 69.3007 27.8963C70.8454 27.8963 72.0547 27.378 72.9286 26.3415C73.8026 25.3049 74.2395 23.8822 74.2395 22.0733C74.2395 20.2645 73.8026 18.8417 72.9286 17.8052C72.0547 16.7686 70.8454 16.2504 69.3007 16.2504Z" fill="#360A14"/>
<path d="M87.5808 14.1468C89.0239 14.1468 90.2941 14.4618 91.3917 15.0919C92.5095 15.7219 93.3835 16.6365 94.0135 17.8357C94.6436 19.0145 94.9586 20.427 94.9586 22.0733C94.9586 23.7196 94.6436 25.1423 94.0135 26.3415C93.3835 27.5203 92.5095 28.4247 91.3917 29.0548C90.2941 29.6849 89.0239 29.9999 87.5808 29.9999C86.1581 29.9999 84.8878 29.6849 83.77 29.0548C82.6521 28.4247 81.7782 27.5203 81.1481 26.3415C80.5181 25.1423 80.203 23.7196 80.203 22.0733C80.203 20.427 80.5181 19.0145 81.1481 17.8357C81.7782 16.6365 82.6521 15.7219 83.77 15.0919C84.8878 14.4618 86.1581 14.1468 87.5808 14.1468ZM87.5808 16.2504C86.0362 16.2504 84.8269 16.7686 83.9529 17.8052C83.079 18.8417 82.642 20.2645 82.642 22.0733C82.642 23.8822 83.079 25.3049 83.9529 26.3415C84.8269 27.378 86.0362 27.8963 87.5808 27.8963C89.1255 27.8963 90.3348 27.378 91.2088 26.3415C92.0827 25.3049 92.5197 23.8822 92.5197 22.0733C92.5197 20.2645 92.0827 18.8417 91.2088 17.8052C90.3348 16.7686 89.1255 16.2504 87.5808 16.2504Z" fill="#360A14"/>
<path d="M101.867 7.4397V25.8232C101.867 26.5955 102.009 27.1341 102.294 27.439C102.579 27.7235 103.036 27.8658 103.666 27.8658C104.072 27.8658 104.408 27.8353 104.672 27.7744C104.936 27.7134 105.292 27.6016 105.739 27.439L105.343 29.5731C104.672 29.8576 103.92 29.9999 103.087 29.9999C100.648 29.9999 99.4283 28.6381 99.4283 25.9147V7.4397H101.867Z" fill="#360A14"/>
<path d="M106.893 29.2436L115.094 9.12231H116.069L124.27 29.2436H123.386L120.581 22.4145H110.581L107.777 29.2436H106.893ZM114.972 11.6222L110.886 21.6219H120.246L116.191 11.6527L115.581 10.0064L114.972 11.6222Z" fill="#360A14"/>
<path d="M126.758 14.0002L132.093 20.6463L137.215 14.0002H138.282L132.611 21.2865L139.014 29.2436H137.855L132.032 22.0182L126.423 29.2436H125.356L131.514 21.3475L125.6 14.0002H126.758Z" fill="#360A14"/>
<path d="M142.532 11.0125C142.268 11.0125 142.044 10.9312 141.861 10.7686C141.698 10.606 141.617 10.3926 141.617 10.1284C141.617 9.86416 141.698 9.65075 141.861 9.48816C142.044 9.32556 142.268 9.24426 142.532 9.24426C142.776 9.24426 142.979 9.32556 143.142 9.48816C143.324 9.65075 143.416 9.86416 143.416 10.1284C143.416 10.3926 143.324 10.606 143.142 10.7686C142.979 10.9312 142.776 11.0125 142.532 11.0125ZM142.959 14.0002V29.2436H142.105V14.0002H142.959Z" fill="#360A14"/>
<path d="M153.085 29.5484C151.52 29.5484 150.159 29.2436 149 28.6338C147.862 28.0038 147.11 27.079 146.744 25.8595L147.506 25.4022C147.811 26.5201 148.462 27.3635 149.458 27.9326C150.474 28.5017 151.724 28.7863 153.207 28.7863C154.711 28.7863 155.911 28.4814 156.805 27.8717C157.699 27.2619 158.146 26.4388 158.146 25.4022C158.146 24.6909 157.913 24.0913 157.445 23.6035C156.998 23.1157 156.154 22.7397 154.915 22.4755L151.409 21.7133C149.986 21.4085 148.97 20.9308 148.36 20.2805C147.75 19.6098 147.445 18.8273 147.445 17.933C147.445 17.1403 147.689 16.429 148.177 15.7989C148.665 15.1485 149.336 14.6404 150.189 14.2746C151.043 13.8884 152.029 13.6953 153.146 13.6953C154.691 13.6953 155.951 14.0002 156.927 14.6099C157.902 15.2197 158.553 16.1546 158.878 17.4147L158.146 17.872C157.862 16.6932 157.282 15.8294 156.408 15.2806C155.555 14.7115 154.468 14.427 153.146 14.427C151.724 14.427 150.555 14.7522 149.64 15.4026C148.746 16.053 148.299 16.8558 148.299 17.811C148.299 18.5224 148.533 19.1525 149 19.7012C149.488 20.2296 150.321 20.626 151.5 20.8902L155.098 21.6829C156.52 21.9877 157.526 22.445 158.116 23.0548C158.705 23.6645 159 24.4267 159 25.3413C159 26.642 158.461 27.6684 157.384 28.4204C156.327 29.1724 154.894 29.5484 153.085 29.5484Z" fill="#360A14"/>
<path d="M166.203 18.1879C171.881 18.1879 176.593 13.768 176.936 8.1034C176.936 7.88749 176.923 7.65887 176.923 7.44296C176.923 7.37945 176.923 7.31595 176.923 7.25244C171.03 7.54456 166.279 12.2947 166 18.1879C166.064 18.1879 166.14 18.1879 166.203 18.1879Z" fill="#0084FF"/>
<path d="M178.079 7.25244C178.079 7.31595 178.079 7.37945 178.079 7.44296C178.079 7.67157 178.079 7.90019 178.066 8.1161C178.409 13.768 183.121 18.2006 188.798 18.2006C188.862 18.2006 188.938 18.2006 189.001 18.2006C188.722 12.2947 183.972 7.54456 178.079 7.25244ZM183.426 13.6664C182.727 13.6664 182.156 13.0949 182.156 12.3963C182.156 11.6978 182.727 11.1262 183.426 11.1262C184.124 11.1262 184.696 11.6978 184.696 12.3963C184.696 13.0949 184.124 13.6664 183.426 13.6664Z" fill="#0084FF"/>
<path d="M176.923 30.2539C176.923 30.1904 176.923 30.1269 176.923 30.0633C176.923 29.8347 176.936 29.6061 176.936 29.3902C176.593 23.7383 171.881 19.3184 166.203 19.3184C166.14 19.3184 166.064 19.3184 166 19.3184C166.279 25.2116 171.03 29.9617 176.923 30.2539Z" fill="#0084FF"/>
<path d="M188.798 19.3184C183.121 19.3184 178.409 23.7383 178.066 29.4029C178.079 29.6188 178.079 29.8474 178.079 30.0761C178.079 30.1396 178.079 30.2031 178.079 30.2666C183.972 29.9744 188.722 25.2243 189.001 19.3311C188.938 19.3184 188.862 19.3184 188.798 19.3184Z" fill="#0084FF"/>
</svg>
